<svg width="200" height="200" viewBox="0 0 200 200" fill="none" xmlns="http://www.w3.org/2000/svg">
<g clip-path="url(#clip0_25_2)">
<path d="M85.2114 38.8383C92.0411 26.3637 109.959 26.3637 116.789 38.8383L181.676 157.356C188.243 169.351 179.562 184 165.887 184H36.1131C22.4376 184 13.7572 169.351 20.3245 157.356L85.2114 38.8383Z" fill="#B3F5D1"/>
<path d="M105.201 74.9367C112.026 62.4376 129.974 62.4376 136.799 74.9368L181.807 157.374C188.356 169.369 179.675 184 166.009 184H75.9913C62.3251 184 53.6438 169.369 60.1927 157.374L105.201 74.9367Z" fill="#7FEDAE"/>
<path d="M128.198 117.966C135.021 105.459 152.979 105.459 159.802 117.966L181.439 157.63C187.983 169.625 179.301 184.25 165.638 184.25H122.362C108.699 184.25 100.017 169.625 106.561 157.63L128.198 117.966Z" fill="#00C16A"/>
</g>
<defs>
<clipPath id="clip0_25_2">
<rect width="200" height="200" fill="white"/>
</clipPath>
</defs>
</svg>
